<?xml version="1.0" standalone="no"?>
<!DOCTYPE svg PUBLIC "-//W3C//DTD SVG 20010904//EN"
 "http://www.w3.org/TR/2001/REC-SVG-20010904/DTD/svg10.dtd">
<svg version="1.0" xmlns="http://www.w3.org/2000/svg"
 width="762.000000pt" height="1020.000000pt" viewBox="0 0 762.000000 1020.000000"
 preserveAspectRatio="xMidYMid meet">

<g transform="translate(0.000000,1020.000000) scale(0.100000,-0.100000)"
fill="#000000" stroke="none">
<path d="M2220 10170 c0 -16 -6 -33 -13 -37 -16 -10 -44 -54 -48 -77 -4 -16
-6 -16 -27 4 -12 12 -36 26 -52 31 -26 10 -32 7 -65 -26 -33 -34 -34 -37 -11
-31 19 5 25 1 30 -18 3 -14 14 -27 24 -29 9 -3 3 -5 -13 -6 -17 0 -36 -6 -43
-13 -9 -9 -15 -9 -23 -1 -15 15 -49 -5 -42 -23 6 -16 -17 -30 -26 -16 -4 7
-40 15 -80 18 -55 5 -72 4 -67 -4 4 -7 26 -12 49 -12 23 0 49 -5 57 -11 11 -8
6 -9 -22 -4 -35 5 -61 -8 -36 -18 8 -4 5 -8 -9 -12 -11 -4 -24 -14 -27 -23 -3
-10 -9 -23 -12 -30 -5 -11 -2 -12 14 -3 26 14 54 14 30 0 -22 -12 -23 -38 -3
-45 35 -14 2 -55 -40 -51 -14 2 -19 -3 -17 -17 3 -15 -1 -17 -21 -12 -14 3
-36 2 -49 -3 -22 -9 -22 -10 6 -10 16 -1 26 -4 22 -8 -10 -11 -79 -33 -103
-33 -12 0 -30 -3 -40 -7 -14 -6 -9 -9 19 -13 28 -4 35 -8 29 -19 -7 -10 -18
-11 -57 -3 -27 6 -57 14 -67 17 -9 4 -17 3 -17 -3 0 -6 25 -16 55 -23 58 -13
69 -23 35 -34 -11 -3 -20 -11 -20 -16 0 -5 9 -9 20 -9 11 0 20 -4 20 -8 0 -16
-44 -32 -95 -34 l-50 -3 35 -12 c19 -6 28 -12 20 -12 -9 -1 -22 -10 -30 -21
-9 -13 -26 -20 -47 -20 -47 0 -41 -18 8 -26 58 -10 35 -22 -46 -26 -60 -3 -65
-5 -37 -12 42 -11 41 -22 -5 -31 -31 -6 -34 -8 -20 -16 10 -6 27 -7 40 -3 15
4 11 -2 -15 -22 -20 -16 -40 -41 -43 -56 -4 -15 -14 -30 -24 -33 -25 -8 -78
-65 -60 -65 12 0 12 -2 -1 -10 -13 -9 -13 -11 0 -20 13 -8 12 -10 -2 -10 -11
0 -18 -8 -18 -18 0 -11 -11 -24 -25 -30 -22 -10 -35 -32 -20 -32 19 0 65 33
59 42 -4 6 -3 9 2 7 5 -3 21 -11 35 -18 20 -10 25 -18 21 -38 l-5 -26 -13 24
c-7 13 -13 18 -14 10 0 -8 -8 -23 -17 -34 -10 -11 -13 -17 -6 -14 23 14 22
-10 -2 -35 -22 -24 -33 -27 -132 -33 -158 -9 -163 -12 -24 -14 123 -1 124 -1
106 -21 -11 -12 -13 -20 -6 -20 9 0 9 -5 1 -20 -7 -13 -21 -20 -40 -20 -34 0
-36 -6 -15 -37 13 -19 13 -22 0 -27 -8 -3 -15 -11 -15 -17 0 -8 4 -8 15 1 9 7
18 10 22 6 11 -11 -6 -19 -39 -18 -19 0 -27 -2 -20 -7 9 -5 -9 -18 -50 -39
-35 -17 -72 -38 -83 -46 l-20 -15 20 -1 c11 0 43 14 70 30 61 36 78 38 66 8
-4 -13 -6 -28 -4 -34 2 -6 -11 -15 -29 -21 -28 -8 -33 -13 -30 -35 2 -21 -7
-34 -45 -64 -48 -37 -44 -40 24 -18 14 5 15 4 4 -4 -8 -6 -11 -17 -8 -25 3 -8
-6 -31 -19 -51 -32 -47 -37 -92 -10 -88 19 4 19 3 1 -25 -36 -56 -42 -63 -49
-56 -4 4 -4 0 0 -10 3 -9 16 -17 27 -17 16 0 18 -3 9 -12 -15 -15 -16 -48 -1
-48 8 0 10 -24 7 -73 -3 -60 -8 -82 -31 -115 -22 -34 -24 -42 -11 -42 11 0 15
-6 11 -20 -3 -11 0 -20 5 -20 7 0 6 -5 -1 -14 -9 -10 -7 -21 6 -43 16 -29 16
-31 -5 -65 -24 -38 -29 -59 -11 -41 16 16 43 5 29 -12 -6 -7 -9 -24 -6 -39 3
-15 -3 -34 -15 -50 -17 -21 -17 -25 -3 -30 15 -6 15 -8 0 -30 -11 -18 -12 -26
-3 -29 9 -4 9 -7 -1 -18 -18 -20 -15 -42 5 -35 9 4 2 -7 -15 -24 -35 -33 -41
-50 -16 -50 11 0 14 -6 9 -20 -4 -14 -2 -20 8 -20 20 0 27 -20 15 -43 -12 -23
-19 -68 -22 -144 -2 -48 0 -60 11 -56 7 3 13 -2 13 -11 0 -9 5 -16 10 -16 7 0
7 -6 1 -19 -8 -15 -6 -20 13 -29 24 -11 24 -11 9 -62 -15 -50 -15 -51 10 -74
23 -22 25 -29 20 -77 -5 -50 -5 -53 12 -39 9 8 21 23 26 35 7 15 8 13 3 -10
-15 -76 -15 -123 2 -129 9 -3 21 -3 26 1 11 6 10 0 -9 -61 -5 -16 -2 -18 20
-14 27 5 31 0 27 -35 -1 -14 4 -16 25 -11 l27 7 -7 -62 c-6 -54 -5 -60 9 -55
9 3 16 13 16 21 0 8 7 13 18 11 12 -3 16 -12 15 -35 -2 -18 2 -35 7 -38 6 -3
10 -1 10 5 0 6 4 9 9 6 15 -10 24 -185 11 -202 -10 -11 -9 -14 4 -14 13 0 15
-4 7 -17 -5 -10 -11 -32 -14 -49 -3 -17 -10 -42 -17 -54 -9 -16 -10 -40 -5
-79 5 -31 9 -89 10 -128 1 -41 8 -79 15 -88 8 -9 10 -29 7 -49 -3 -22 -1 -36
6 -39 7 -2 2 -15 -12 -36 -13 -18 -21 -35 -18 -37 3 -3 11 4 17 16 19 36 24
15 22 -93 -4 -200 52 -600 118 -847 12 -47 26 -101 30 -120 17 -79 52 -214 61
-238 6 -15 16 -56 24 -92 14 -69 42 -185 77 -315 18 -67 83 -229 117 -292 5
-10 16 -33 23 -50 7 -18 16 -33 20 -33 5 0 8 -6 8 -13 0 -7 18 -41 40 -75 22
-33 40 -63 40 -66 0 -3 14 -25 30 -49 17 -25 30 -48 30 -51 0 -3 8 -14 17 -24
10 -11 27 -32 38 -48 11 -15 33 -43 49 -61 l28 -33 -53 -58 c-29 -31 -56 -59
-59 -62 -3 -3 -33 -38 -66 -79 -115 -143 -158 -244 -249 -586 -8 -27 -23 -86
-35 -130 -12 -44 -23 -89 -25 -100 -1 -11 -10 -58 -19 -105 -18 -94 -71 -482
-81 -600 -4 -41 -8 -86 -10 -100 -6 -51 -22 -246 -23 -275 -1 -16 -4 -46 -7
-66 -6 -31 -4 -36 20 -47 14 -7 35 -12 45 -12 18 0 20 -7 20 -87 0 -49 7 -124
15 -168 16 -83 51 -203 65 -220 18 -22 49 -85 42 -85 -17 1 -64 78 -91 149
-35 92 -74 271 -66 304 4 15 1 28 -10 37 -13 10 -13 15 -3 21 8 6 -2 9 -27 10
-29 2 -33 3 -13 6 14 2 29 11 32 19 5 12 1 14 -17 8 -12 -3 -29 -12 -37 -19
-9 -7 -47 -13 -92 -14 -92 -1 -145 -12 -236 -48 -81 -32 -142 -71 -142 -90 0
-8 -5 -11 -11 -8 -17 11 -89 -46 -110 -86 -10 -21 -19 -51 -19 -66 0 -38 -10
-50 -45 -58 -18 -4 -25 -3 -18 2 12 9 20 44 30 141 4 43 3 52 -10 52 -9 0 -18
-10 -20 -23 -4 -20 -4 -19 -6 4 0 15 -7 32 -15 38 -11 9 -16 5 -26 -19 -16
-39 -23 -38 -43 5 l-17 35 25 0 c22 0 25 4 25 34 0 19 3 41 6 50 4 11 1 16
-10 16 -9 0 -16 8 -16 20 0 11 7 20 15 20 8 0 15 5 15 10 0 6 8 10 17 10 16 0
16 1 0 12 -21 17 -37 61 -37 106 0 20 -9 56 -20 80 -15 33 -24 42 -44 42 -59
0 -74 28 -31 62 20 15 23 23 15 38 -14 27 -45 33 -85 19 -31 -12 -35 -17 -35
-49 -1 -47 -20 -70 -59 -70 -17 0 -31 -4 -31 -9 0 -19 18 -21 53 -6 l35 14 4
-41 c3 -30 -1 -45 -14 -58 -19 -18 -21 -66 -3 -79 5 -4 29 -13 52 -21 39 -12
60 -40 30 -40 -7 0 -18 -9 -25 -20 -10 -16 -10 -24 0 -40 7 -11 18 -20 25 -20
20 0 15 -20 -4 -20 -10 -1 -29 -7 -41 -14 l-24 -13 26 -16 c30 -20 53 -22 58
-5 4 10 10 10 29 1 l24 -12 -27 0 c-21 -1 -28 -6 -28 -21 0 -24 15 -26 27 -5
8 13 11 13 31 -1 l22 -15 -26 -40 c-19 -30 -22 -44 -14 -54 6 -7 9 -19 8 -26
-2 -7 5 -15 14 -17 14 -3 18 3 18 22 0 23 4 26 39 26 28 0 40 -5 45 -18 3 -9
9 -23 12 -31 5 -10 2 -12 -9 -8 -19 7 -42 -26 -33 -48 3 -8 1 -17 -4 -20 -17
-10 -11 -44 9 -57 19 -11 18 -14 -20 -55 -21 -23 -39 -51 -39 -61 0 -10 -9
-27 -20 -37 -11 -10 -20 -24 -20 -32 0 -7 -9 -13 -20 -13 -15 0 -20 -7 -20
-27 l0 -27 -40 39 c-24 23 -40 33 -40 24 0 -8 -9 -20 -19 -26 -11 -7 -21 -23
-23 -35 -2 -14 -10 -23 -20 -22 -10 0 -36 1 -58 2 -38 2 -59 22 -23 22 14 0
14 2 -2 20 -12 13 -31 20 -57 20 l-38 0 0 -59 c0 -33 -4 -61 -9 -63 -5 -2 -11
-22 -12 -45 -5 -72 -1 -73 207 -73 101 0 184 4 184 8 0 13 36 52 48 52 6 0 22
14 35 30 26 31 47 39 47 19 0 -7 -13 -34 -30 -60 l-30 -49 720 0 c396 0 720 2
720 5 0 2 -21 14 -47 26 -27 12 -67 34 -91 50 -24 16 -57 36 -73 45 -30 15
-69 49 -69 60 0 3 5 2 10 -1 11 -7 70 15 70 26 0 4 17 10 37 14 21 4 40 10 43
15 3 4 25 9 50 10 83 5 102 1 107 -20 4 -14 14 -20 35 -20 21 0 31 -6 35 -20
3 -13 14 -20 29 -20 27 0 31 -19 12 -50 -10 -15 -10 -22 0 -32 10 -10 14 -8
18 10 4 12 13 22 20 22 8 0 14 10 14 25 0 14 4 25 8 25 5 0 15 11 22 25 7 14
22 25 32 25 10 0 18 7 18 15 0 35 21 19 116 -87 13 -16 28 -28 33 -28 4 0 14
28 21 63 22 113 29 133 55 155 14 12 30 22 35 22 7 0 7 6 2 18 -14 26 -23 82
-13 82 4 0 14 12 21 28 l12 27 11 -22 c5 -13 16 -23 23 -23 20 0 28 -21 13
-32 -11 -8 -10 -9 3 -5 20 7 46 -20 32 -32 -5 -5 -18 -12 -29 -15 -11 -3 4 -4
33 -2 49 3 57 -1 53 -27 -2 -13 30 -77 39 -77 4 0 27 -18 51 -40 24 -22 56
-46 70 -52 15 -7 25 -17 23 -23 -3 -6 7 -12 22 -13 36 -3 49 -12 33 -23 -10
-6 -8 -9 7 -9 28 0 76 -25 67 -34 -4 -4 3 -9 15 -13 12 -3 22 -9 22 -14 0 -5
9 -9 21 -9 13 0 23 -8 26 -21 3 -12 11 -18 19 -15 8 3 14 1 14 -4 0 -6 84 -10
218 -10 l219 0 13 25 c8 14 19 24 26 21 6 -2 11 1 10 8 -1 15 69 96 84 96 5 0
6 7 3 17 -4 11 -3 14 5 9 7 -4 12 -1 12 6 0 10 12 12 41 10 27 -3 39 -1 35 6
-3 6 -15 8 -26 5 -21 -6 -25 3 -11 25 6 10 10 10 21 -3 19 -23 65 -19 83 7
l16 23 0 -27 1 -27 25 23 c14 13 25 30 25 38 0 8 17 21 40 28 23 7 40 20 40
28 0 17 28 41 48 42 16 0 77 61 74 73 -1 4 4 7 12 7 8 0 18 9 21 21 4 11 26
44 50 73 23 29 48 62 54 74 28 53 110 53 139 1 9 -16 23 -29 30 -29 6 0 12 -6
12 -14 0 -8 3 -16 8 -19 4 -2 2 -2 -5 -1 -6 2 -17 -4 -23 -12 -7 -8 -18 -14
-26 -14 -7 0 -17 -6 -21 -13 -4 -6 -21 -19 -38 -27 -16 -8 -32 -17 -35 -20 -3
-3 -21 -14 -40 -24 -65 -35 -140 -88 -140 -98 0 -5 -4 -7 -9 -4 -5 3 -20 -5
-34 -18 -14 -13 -32 -26 -39 -29 -7 -3 0 -6 16 -6 17 -1 43 10 63 25 37 28 40
23 13 -21 -11 -16 -27 -46 -37 -65 -9 -19 -42 -73 -72 -120 -31 -47 -57 -88
-59 -92 -2 -5 733 -8 1633 -8 l1637 0 -4 25 c-3 13 -2 22 3 20 11 -7 17 18 28
115 11 94 27 156 41 165 6 4 10 17 10 30 0 13 4 27 10 30 5 3 10 20 10 37 0
29 27 89 43 96 4 2 10 21 13 43 5 28 12 39 24 39 13 0 16 7 12 28 -4 28 41
152 52 142 8 -7 56 61 56 80 0 9 9 26 20 38 19 20 20 35 20 352 0 225 -3 330
-11 330 -5 0 -8 3 -6 7 3 5 -26 9 -63 10 -72 1 -273 36 -325 55 -44 16 -93 37
-151 64 -62 29 -78 31 -66 7 6 -10 13 -41 17 -69 4 -32 15 -61 31 -79 27 -32
31 -55 9 -55 -8 0 -15 -8 -16 -17 0 -14 -2 -13 -9 5 -5 12 -15 22 -21 22 -7 0
-20 7 -28 14 -10 9 -22 12 -30 7 -10 -7 -8 -14 10 -35 12 -14 29 -26 36 -26 7
0 13 -4 13 -10 0 -17 -24 -65 -37 -73 -7 -4 -13 -14 -13 -21 0 -8 -11 -17 -25
-20 -14 -4 -25 -13 -25 -21 0 -8 -4 -15 -9 -15 -5 0 -13 -10 -16 -21 -6 -18
-13 -21 -46 -16 -44 6 -56 -15 -16 -28 13 -4 17 -8 10 -12 -7 -2 -13 -11 -13
-19 0 -8 -4 -14 -10 -14 -5 0 -10 -19 -10 -42 -1 -24 -7 -54 -15 -68 -19 -33
-19 -75 0 -94 16 -16 20 -46 6 -46 -4 0 -20 11 -35 25 -21 19 -31 23 -45 16
-34 -18 -43 -38 -31 -61 15 -27 6 -50 -19 -50 -26 0 -32 -42 -15 -99 8 -25 14
-56 14 -68 0 -21 -5 -23 -50 -23 -49 0 -50 -1 -50 -30 0 -47 -33 -40 -59 13
-12 24 -21 48 -21 55 0 6 -6 15 -14 19 -8 4 -16 17 -19 28 -3 12 -5 6 -6 -15
0 -19 10 -80 24 -135 30 -120 30 -115 4 -115 -31 0 -110 84 -194 209 -67 99
-208 227 -295 268 -211 100 -375 136 -725 159 -60 3 -136 6 -167 5 -54 -2 -58
-1 -58 20 0 13 10 33 21 46 17 18 19 25 10 36 -8 11 -9 22 0 43 6 16 12 47 15
69 4 51 31 127 48 140 8 6 19 37 26 70 12 64 31 127 40 135 9 8 38 90 50 140
6 25 13 54 17 65 3 11 8 41 10 68 3 26 9 47 13 47 5 0 11 19 15 43 25 162 52
284 91 402 53 165 72 263 84 418 10 132 -4 433 -20 452 -12 15 -2 68 11 59 5
-3 29 -47 54 -99 24 -51 59 -117 76 -146 17 -29 40 -76 51 -103 11 -28 23 -53
28 -56 4 -3 24 -39 45 -80 50 -104 126 -244 134 -250 4 -3 13 -20 20 -38 8
-18 19 -36 25 -40 20 -12 54 -76 48 -91 -3 -10 0 -12 11 -8 11 4 17 -1 19 -14
2 -11 6 -18 9 -17 4 2 15 -4 25 -13 20 -17 74 -34 74 -23 0 4 -6 12 -14 18 -9
6 -16 32 -18 61 -2 46 0 50 21 53 12 2 30 -3 39 -11 53 -45 125 -88 132 -77 4
7 17 9 33 5 36 -10 24 -25 -19 -25 -28 0 -35 -4 -32 -17 4 -23 101 -35 126
-16 10 7 46 13 83 13 63 0 67 -1 67 -22 0 -41 10 -119 16 -125 3 -4 6 -21 6
-38 0 -18 6 -38 14 -44 18 -15 31 -104 25 -176 -1 -14 6 -34 15 -44 10 -11 16
-36 16 -68 0 -47 3 -52 28 -62 52 -21 -160 -4 -219 18 -30 10 -72 22 -94 26
-21 4 -68 20 -103 36 -36 16 -68 29 -73 29 -4 0 -2 -19 6 -43 29 -87 45 -146
79 -302 77 -345 166 -685 180 -685 2 0 3 25 2 56 0 38 4 58 14 64 8 5 16 22
17 37 2 46 39 138 56 141 9 2 19 18 22 35 11 53 58 146 77 150 12 4 18 17 20
48 3 37 8 46 33 59 36 18 46 31 40 47 -7 19 28 89 56 112 21 17 22 22 12 40
-9 14 -9 22 -2 27 6 3 9 15 6 25 -4 15 0 19 19 19 16 0 22 -4 18 -14 -3 -8 -1
-17 5 -21 6 -3 11 -2 11 3 0 16 73 20 88 5 7 -7 21 -13 30 -13 48 0 -75 54
-163 72 -52 10 -92 27 -66 28 10 0 11 3 2 14 -8 10 -9 16 -1 21 6 4 10 16 9
28 -4 50 2 67 39 93 37 26 37 28 37 92 -1 55 -5 68 -28 93 -15 17 -24 35 -21
44 4 9 1 15 -7 15 -8 0 -24 15 -36 33 -37 53 -27 88 15 52 46 -41 81 -65 95
-65 9 0 19 -5 22 -10 10 -16 144 -76 200 -89 53 -13 70 -28 53 -48 -7 -9 -7
-13 0 -13 5 0 12 7 16 15 6 16 36 21 36 6 0 -5 10 -11 23 -14 31 -7 87 -27
117 -42 14 -7 57 -25 95 -40 39 -15 74 -31 80 -36 5 -5 17 -9 27 -9 11 0 28
-9 40 -20 12 -11 31 -20 43 -20 12 0 30 -7 41 -15 10 -8 22 -15 27 -15 12 0 8
28 -5 34 -10 5 -10 7 0 12 15 7 18 284 3 284 -6 0 -12 -15 -14 -32 -3 -29 -4
-27 -5 10 -2 31 2 42 13 42 12 0 15 14 15 69 0 46 -4 71 -12 75 -10 5 -10 7 0
12 15 7 17 164 2 164 -5 0 -10 -18 -10 -40 l0 -40 -40 0 -40 0 0 40 c0 27 4
40 14 40 7 0 16 10 19 21 5 18 11 21 36 16 l31 -6 0 164 c0 103 -4 165 -10
165 -5 0 -10 9 -10 20 0 11 5 20 10 20 7 0 10 1207 10 3600 l0 3600 -745 0
-744 0 -25 -25 c-19 -18 -36 -25 -66 -25 -36 0 -40 -2 -40 -25 0 -14 5 -25 10
-25 6 0 10 -7 10 -15 0 -8 -4 -15 -10 -15 -5 0 -10 -7 -10 -15 0 -9 -9 -15
-22 -15 -12 0 -54 -16 -95 -35 l-73 -35 0 -42 c0 -51 -20 -65 -87 -60 -35 3
-43 7 -43 23 0 23 -18 26 -26 4 -4 -8 -12 -15 -20 -15 -8 0 -14 -7 -14 -16 0
-13 -7 -15 -36 -9 -26 4 -39 2 -45 -7 -10 -15 -28 5 -55 60 -9 18 -25 37 -35
43 -11 5 -19 20 -19 34 0 29 -16 41 -35 25 -10 -8 -15 -7 -23 5 -8 15 -12 15
-47 1 -47 -20 -55 -20 -55 -1 0 9 -9 15 -25 15 -14 0 -25 6 -25 13 0 17 -55
77 -72 78 -7 0 -4 4 7 9 16 7 17 9 3 9 -9 1 -20 6 -23 11 -8 12 137 2 145 -10
3 -4 23 -5 45 -1 56 9 30 22 -53 25 -37 1 -74 6 -82 11 -8 5 -37 11 -65 14
-27 2 -661 6 -1407 8 l-1358 4 0 -25 c0 -13 -7 -27 -15 -30 -10 -4 -15 -1 -13
9 3 13 0 15 -21 15 -5 0 -12 -11 -15 -24 -7 -27 -36 -44 -36 -21 0 7 5 17 10
20 6 3 10 18 9 33 l0 27 -10 -25 c-8 -19 -12 -22 -19 -10 -5 8 -6 18 -4 22 3
4 -2 8 -10 8 -11 0 -16 -9 -16 -30z m2895 -10 c3 -5 -1 -10 -10 -10 -9 0 -13
5 -10 10 3 6 8 10 10 10 2 0 7 -4 10 -10z m-2825 -65 c-7 -9 -15 -13 -17 -11
-7 7 7 26 19 26 6 0 6 -6 -2 -15z m-201 -44 c6 -10 8 -21 4 -24 -7 -8 -33 18
-33 32 0 18 18 13 29 -8z m3251 -70 c0 -5 -7 -12 -16 -15 -24 -9 -28 -7 -14 9
14 17 30 20 30 6z m64 -23 c8 -6 6 -11 -4 -18 -21 -14 -27 -12 -34 6 -4 9 -1
23 6 31 10 13 13 13 17 2 2 -8 9 -17 15 -21z m26 -58 c0 -5 -4 -10 -10 -10 -5
0 -10 5 -10 10 0 6 5 10 10 10 6 0 10 -4 10 -10z m170 -70 c0 -5 -5 -10 -11
-10 -5 0 -7 5 -4 10 3 6 8 10 11 10 2 0 4 -4 4 -10z m80 -4 c0 -14 -29 -31
-38 -21 -6 6 18 35 29 35 5 0 9 -6 9 -14z m-3824 -24 c1 -7 0 -8 -3 -2 -3 8
-9 7 -19 -1 -8 -6 -14 -7 -14 -2 0 24 31 28 36 5z m3824 -72 c0 -5 -7 -10 -16
-10 -8 0 -12 5 -9 10 3 6 10 10 16 10 5 0 9 -4 9 -10z m135 -132 c14 -6 25
-16 25 -21 0 -5 -6 -5 -13 2 -8 6 -31 15 -53 20 -32 7 -34 9 -12 10 15 1 39
-4 53 -11z m-4158 -24 c-30 -16 -44 -14 -32 5 3 6 18 11 33 11 l27 -1 -28 -15z
m4130 -40 c-3 -3 -12 -4 -19 -1 -8 3 -5 6 6 6 11 1 17 -2 13 -5z m-4507 -404
c0 -5 -2 -10 -4 -10 -3 0 -8 5 -11 10 -3 6 -1 10 4 10 6 0 11 -4 11 -10z
m1680 -3730 c0 -5 -5 -10 -11 -10 -5 0 -7 5 -4 10 3 6 8 10 11 10 2 0 4 -4 4
-10z m-33 -46 c-3 -3 -12 -4 -19 -1 -8 3 -5 6 6 6 11 1 17 -2 13 -5z m4673
-2299 c0 -42 -3 -55 -15 -55 -11 0 -15 12 -15 48 0 27 3 52 7 55 16 17 23 3
23 -48z m-80 -70 c0 -11 -11 -15 -40 -15 -29 0 -40 4 -40 15 0 11 11 15 40 15
29 0 40 -4 40 -15z m41 -85 c32 0 39 -3 39 -20 0 -17 -7 -20 -39 -20 -22 0
-42 -5 -44 -12 -3 -7 -5 7 -5 32 0 25 2 39 5 33 2 -8 22 -13 44 -13z m-138
-57 c-13 -2 -33 -2 -45 0 -13 2 -3 4 22 4 25 0 35 -2 23 -4z m58 -323 c39 0
39 0 39 -39 l0 -39 -76 -7 c-41 -4 -78 -4 -81 -1 -4 3 13 6 37 6 l43 0 -5 53
c-3 28 -3 46 -1 40 3 -8 22 -13 44 -13z m-906 -110 c3 -5 1 -10 -4 -10 -6 0
-11 5 -11 10 0 6 2 10 4 10 3 0 8 -4 11 -10z m945 -10 c0 -17 -7 -20 -40 -20
-33 0 -40 3 -40 20 0 17 7 20 40 20 33 0 40 -3 40 -20z m-1333 -486 c-3 -3
-12 -4 -19 -1 -8 3 -5 6 6 6 11 1 17 -2 13 -5z m70 -36 c23 -22 31 -48 14 -48
-6 0 -13 5 -16 10 -4 6 -10 8 -15 5 -11 -7 -40 22 -40 41 0 21 31 17 57 -8z
m-1140 -60 c-3 -7 -5 -2 -5 12 0 14 2 19 5 13 2 -7 2 -19 0 -25z m-28 -103
c-6 -28 -18 -66 -26 -85 -9 -19 -17 -44 -19 -55 -1 -11 -16 -72 -33 -135 -17
-63 -38 -140 -46 -170 -8 -30 -19 -81 -25 -112 -13 -69 -84 -211 -162 -328
-48 -72 -228 -273 -228 -255 0 4 13 26 30 50 21 31 26 45 17 49 -6 3 -3 4 8 1
27 -6 65 22 46 34 -10 6 -10 10 -1 16 6 4 9 13 6 21 -3 8 0 11 10 7 8 -3 13
-12 10 -20 -4 -8 -1 -11 5 -8 6 4 8 12 6 19 -7 19 11 56 28 56 9 0 14 4 11 8
-3 5 4 21 15 38 10 16 19 39 19 52 0 12 4 22 9 22 5 0 7 -10 4 -22 -12 -48 16
-1 51 84 19 48 41 102 49 120 8 18 38 107 67 198 28 91 72 228 97 305 24 77
47 146 49 154 10 32 12 2 3 -44z m1966 -35 c3 -5 1 -10 -4 -10 -6 0 -11 5 -11
10 0 6 2 10 4 10 3 0 8 -4 11 -10z m55 -20 c8 -5 11 -10 6 -10 -5 0 1 -11 14
-25 13 -14 19 -25 13 -25 -12 0 -73 54 -73 64 0 9 23 7 40 -4z m-5653 -602
c-3 -8 -6 -5 -6 6 -1 11 2 17 5 13 3 -3 4 -12 1 -19z m-11 -126 c-12 -12 -18
8 -10 35 l8 28 4 -28 c2 -16 1 -31 -2 -35z m5369 -1 c3 -5 1 -12 -5 -16 -5 -3
-10 1 -10 9 0 18 6 21 15 7z m-2815 -541 c0 -5 -7 -10 -15 -10 -8 0 -15 5 -15
10 0 6 7 10 15 10 8 0 15 -4 15 -10z m-45 -10 c3 -5 1 -10 -4 -10 -6 0 -11 5
-11 10 0 6 2 10 4 10 3 0 8 -4 11 -10z m-26 -82 c9 -15 10 -23 2 -31 -8 -8
-11 -5 -11 10 0 29 -12 35 -30 15 -13 -14 -12 -15 3 -9 33 12 16 -20 -20 -40
-30 -17 -40 -16 -47 3 -3 8 -2 12 4 9 12 -8 53 33 47 48 -8 21 39 16 52 -5z
m-1582 -14 c-3 -3 -12 -4 -19 -1 -8 3 -5 6 6 6 11 1 17 -2 13 -5z m-1772 -34
c3 -5 1 -10 -4 -10 -6 0 -11 5 -11 10 0 6 2 10 4 10 3 0 8 -4 11 -10z m1550
-10 c3 -5 -3 -10 -15 -10 -12 0 -18 5 -15 10 3 6 10 10 15 10 5 0 12 -4 15
-10z m-1567 -52 c-2 -6 -14 -18 -26 -26 -21 -14 -22 -13 -22 12 0 21 5 26 26
26 15 0 24 -5 22 -12z"/>
<path d="M2328 10193 c7 -3 16 -2 19 1 4 3 -2 6 -13 5 -11 0 -14 -3 -6 -6z"/>
<path d="M1996 10095 c4 -8 8 -15 10 -15 2 0 4 7 4 15 0 8 -4 15 -10 15 -5 0
-7 -7 -4 -15z"/>
<path d="M5497 9941 c3 -12 9 -21 14 -21 14 0 11 16 -5 29 -12 10 -13 8 -9 -8z"/>
<path d="M1723 9788 c-7 -13 -15 -34 -19 -48 -6 -22 -3 -21 26 12 18 21 37 35
43 31 5 -3 8 0 5 8 -8 24 -43 22 -55 -3z"/>
<path d="M1453 9513 c9 -2 25 -2 35 0 9 3 1 5 -18 5 -19 0 -27 -2 -17 -5z"/>
<path d="M1061 8751 c-8 -5 -9 -11 -3 -15 5 -3 12 1 16 9 6 17 6 18 -13 6z"/>
<path d="M865 7630 c-3 -5 1 -10 9 -10 8 0 18 5 21 10 3 6 -1 10 -9 10 -8 0
-18 -4 -21 -10z"/>
<path d="M5990 2416 c0 -14 11 -37 24 -51 l25 -27 -4 41 c-4 48 -11 61 -31 61
-8 0 -14 -10 -14 -24z"/>
<path d="M7274 1978 c-4 -7 -2 -14 4 -16 7 -2 12 -10 12 -18 0 -9 -5 -12 -11
-8 -9 5 -10 -4 -5 -31 7 -37 57 -95 83 -95 7 0 33 -10 58 -22 24 -12 47 -19
50 -16 4 3 8 20 10 38 4 27 0 34 -27 48 -16 9 -53 40 -82 68 -55 55 -81 70
-92 52z"/>
<path d="M1145 1760 c-3 -5 -2 -10 4 -10 5 0 13 5 16 10 3 6 2 10 -4 10 -5 0
-13 -4 -16 -10z"/>
<path d="M1055 1740 c-18 -8 -17 -9 7 -9 15 -1 30 4 33 9 7 12 -12 12 -40 0z"/>
<path d="M7412 1732 c-10 -7 -8 -15 8 -35 12 -15 26 -27 31 -27 13 0 10 32 -5
53 -15 19 -16 20 -34 9z"/>
<path d="M943 1713 c9 -2 23 -2 30 0 6 3 -1 5 -18 5 -16 0 -22 -2 -12 -5z"/>
<path d="M795 1700 c-34 -6 -28 -7 35 -8 52 -1 70 1 60 8 -17 11 -35 11 -95 0z"/>
<path d="M7418 1623 c7 -3 16 -2 19 1 4 3 -2 6 -13 5 -11 0 -14 -3 -6 -6z"/>
<path d="M368 1613 c6 -2 18 -2 25 0 6 3 1 5 -13 5 -14 0 -19 -2 -12 -5z"/>
<path d="M335 1580 c-4 -6 -11 -8 -16 -5 -5 4 -9 1 -9 -4 0 -6 -16 -11 -35
-11 -29 0 -35 -4 -35 -21 0 -17 4 -19 23 -13 12 4 36 8 53 9 43 2 63 16 38 27
-12 5 -3 6 26 3 l45 -5 -29 15 c-33 18 -52 19 -61 5z"/>
<path d="M6884 1575 c-4 -9 -4 -18 -1 -21 10 -10 48 7 44 19 -6 19 -36 20 -43
2z"/>
<path d="M5160 1434 c0 -9 7 -14 17 -12 25 5 28 28 4 28 -12 0 -21 -6 -21 -16z"/>
<path d="M1 800 c-1 -219 2 -310 9 -310 34 0 50 22 50 65 0 25 4 45 9 45 16 0
51 85 51 123 0 22 5 37 12 37 9 0 9 3 1 11 -21 21 -53 -12 -53 -53 0 -21 -4
-38 -9 -38 -5 0 -11 38 -13 85 -2 63 0 85 10 85 7 0 12 13 12 30 0 17 -5 30
-13 30 -8 0 -11 14 -9 45 2 25 8 45 12 45 5 0 2 16 -6 35 -8 20 -12 40 -9 45
6 9 -25 30 -43 30 -7 0 -11 -116 -11 -310z"/>
<path d="M6690 1031 c0 -11 26 -22 34 -14 3 3 3 10 0 14 -7 12 -34 11 -34 0z"/>
<path d="M6420 855 c0 -15 4 -24 10 -20 6 3 10 12 10 20 0 8 -4 17 -10 20 -6
4 -10 -5 -10 -20z"/>
<path d="M6552 740 c0 -14 2 -19 5 -12 2 6 2 18 0 25 -3 6 -5 1 -5 -13z"/>
<path d="M7600 690 c0 -5 5 -10 10 -10 6 0 10 5 10 10 0 6 -4 10 -10 10 -5 0
-10 -4 -10 -10z"/>
<path d="M7576 584 c-3 -9 -6 -29 -6 -46 0 -43 -21 -111 -38 -121 -9 -6 -11
-18 -7 -39 5 -19 3 -28 -3 -24 -12 7 -22 -14 -33 -69 -4 -22 -13 -60 -19 -85
-6 -25 -13 -61 -16 -80 -2 -19 -13 -47 -24 -62 -35 -48 -20 -58 91 -58 l99 0
0 300 c0 288 -1 300 -19 300 -10 0 -22 -7 -25 -16z"/>
<path d="M27 439 c-32 -34 -34 -50 -7 -69 26 -19 26 -50 0 -50 -13 0 -20 -7
-20 -20 0 -13 7 -20 20 -20 13 0 20 7 20 20 0 13 7 20 20 20 12 0 20 -7 20
-17 0 -12 11 -6 40 22 22 21 40 45 40 51 0 7 6 14 13 17 6 2 9 8 5 12 -4 4
-25 0 -48 -9 -53 -21 -70 -20 -70 4 0 11 5 20 10 20 6 0 10 11 10 25 0 32 -18
30 -53 -6z"/>
<path d="M2610 400 c0 -19 3 -21 12 -12 9 9 9 15 0 24 -9 9 -12 7 -12 -12z"/>
<path d="M240 265 c0 -8 5 -15 10 -15 6 0 10 7 10 15 0 8 -4 15 -10 15 -5 0
-10 -7 -10 -15z"/>
<path d="M352 259 c-8 -12 -19 -18 -28 -15 -17 7 -31 -21 -17 -35 5 -5 24 6
48 31 23 24 33 40 24 40 -8 0 -20 -9 -27 -21z"/>
<path d="M34 185 c25 -19 46 -19 46 0 0 10 -10 15 -32 15 -31 -1 -32 -1 -14
-15z"/>
<path d="M3760 139 c0 -5 5 -7 10 -4 6 3 10 8 10 11 0 2 -4 4 -10 4 -5 0 -10
-5 -10 -11z"/>
<path d="M3675 69 c-4 -6 -5 -12 -2 -15 2 -3 7 2 10 11 7 17 1 20 -8 4z"/>
</g>
</svg>
